<?xml version="1.0" encoding="UTF-8" standalone="no"?>
<!-- Created with Inkscape (http://www.inkscape.org/) -->

<svg
   xmlns:dc="http://purl.org/dc/elements/1.1/"
   xmlns:cc="http://creativecommons.org/ns#"
   xmlns:rdf="http://www.w3.org/1999/02/22-rdf-syntax-ns#"
   xmlns:svg="http://www.w3.org/2000/svg"
   xmlns="http://www.w3.org/2000/svg"
   xmlns:sodipodi="http://sodipodi.sourceforge.net/DTD/sodipodi-0.dtd"
   xmlns:inkscape="http://www.inkscape.org/namespaces/inkscape"
   id="svg2"
   version="1.1"
   inkscape:version="0.91 r13725"
   width="8.5in"
   height="6in"
   viewBox="0 0 765 539.99999"
   sodipodi:docname="Map.svg">
  <metadata
     id="metadata8">
    <rdf:RDF>
      <cc:Work
         rdf:about="">
        <dc:format>image/svg+xml</dc:format>
        <dc:type
           rdf:resource="http://purl.org/dc/dcmitype/StillImage" />
        <dc:title></dc:title>
      </cc:Work>
    </rdf:RDF>
  </metadata>
  <defs
     id="defs6" />
  <sodipodi:namedview
     pagecolor="#ffffff"
     bordercolor="#666666"
     borderopacity="1"
     objecttolerance="10"
     gridtolerance="10"
     guidetolerance="10"
     inkscape:pageopacity="0"
     inkscape:pageshadow="2"
     inkscape:window-width="956"
     inkscape:window-height="1016"
     id="namedview4"
     showgrid="false"
     units="in"
     height="5in"
     inkscape:zoom="0.63427289"
     inkscape:cx="297.26116"
     inkscape:cy="257.15895"
     inkscape:window-x="960"
     inkscape:window-y="0"
     inkscape:window-maximized="0"
     inkscape:current-layer="svg2" />
  <path
     style="fill:none;fill-rule:evenodd;stroke:#000000;stroke-width:1.0936656px;stroke-linecap:butt;stroke-linejoin:miter;stroke-opacity:1"
     d="M -2.2656678,539.9841 -4.8010569,2.9056902 768.49263,5.2510182 769.76032,503.6316 l -53.24317,0 0,-103.19409 -181.28032,1.17266 1.26769,100.84877 -264.94816,0 0,39.87041 z"
     id="path3338"
     inkscape:connector-curvature="0" />
  <path
     style="fill:none;fill-rule:evenodd;stroke:#000000;stroke-width:1.0936656px;stroke-linecap:butt;stroke-linejoin:miter;stroke-opacity:1"
     d="m 115.62992,4.0783602 2.53539,68.0142938 -124.234062,1.17266 0,-70.3596238 z"
     id="path3340"
     inkscape:connector-curvature="0" />
  <path
     style="fill:none;fill-rule:evenodd;stroke:#000000;stroke-width:1.0936656px;stroke-linecap:butt;stroke-linejoin:miter;stroke-opacity:1"
     d="M -4.8010569,157.69685 115.62992,156.52418 114.36223,276.13553"
     id="path3342"
     inkscape:connector-curvature="0" />
  <path
     style="fill:none;fill-rule:evenodd;stroke:#000000;stroke-width:1.0936656px;stroke-linecap:butt;stroke-linejoin:miter;stroke-opacity:1"
     d="m -3.5333618,334.76854 117.8955918,0"
     id="path3344"
     inkscape:connector-curvature="0" />
  <path
     style="fill:none;fill-rule:evenodd;stroke:#000000;stroke-width:1.0936656px;stroke-linecap:butt;stroke-linejoin:miter;stroke-opacity:1"
     d="m 187.88851,333.59588 -1.26769,-133.68327 39.29853,0 46.9047,43.38843 -2.53539,93.81282 z"
     id="path3346"
     inkscape:connector-curvature="0" />
  <path
     style="fill:none;fill-rule:evenodd;stroke:#000000;stroke-width:1.0936656px;stroke-linecap:butt;stroke-linejoin:miter;stroke-opacity:1"
     d="M 269.02097,501.28628 267.75328,337.11386"
     id="path3348"
     inkscape:connector-curvature="0" />
  <path
     style="fill:none;fill-rule:evenodd;stroke:#000000;stroke-width:1.0936656px;stroke-linecap:butt;stroke-linejoin:miter;stroke-opacity:1"
     d="m 322.26414,5.2510182 0,53.9423678 169.87107,1.17266 -1.26769,-58.6330158 59.58165,3.517989 0,174.7263808 -97.61248,2.34531 -128.03716,1.17266 0,-50.42439 163.5326,-1.17266 2.53539,-70.359616"
     id="path3350"
     inkscape:connector-curvature="0" />
  <path
     style="fill:none;fill-rule:evenodd;stroke:#000000;stroke-width:1.0936656px;stroke-linecap:butt;stroke-linejoin:miter;stroke-opacity:1"
     d="M 492.13521,65.056684 493.4029,182.32271"
     id="path3352"
     inkscape:connector-curvature="0" />
  <path
     style="fill:none;fill-rule:evenodd;stroke:#000000;stroke-width:1.0936656px;stroke-linecap:butt;stroke-linejoin:miter;stroke-opacity:1"
     d="m 488.33213,250.337 48.17239,0 0,152.44583"
     id="path3354"
     inkscape:connector-curvature="0" />
  <path
     style="fill:none;fill-rule:evenodd;stroke:#000000;stroke-width:1.0936656px;stroke-linecap:butt;stroke-linejoin:miter;stroke-opacity:1"
     d="m 618.90467,109.61777 0,68.0143 147.05257,0 1.2677,-69.18696 z"
     id="path3356"
     inkscape:connector-curvature="0" />
  <path
     style="fill:none;fill-rule:evenodd;stroke:#000000;stroke-width:1.0936656px;stroke-linecap:butt;stroke-linejoin:miter;stroke-opacity:1"
     d="M 659.47089,108.44511 658.2032,5.2510182"
     id="path3358"
     inkscape:connector-curvature="0" />
  <path
     style="fill:none;fill-rule:evenodd;stroke:#000000;stroke-width:1.0936656px;stroke-linecap:butt;stroke-linejoin:miter;stroke-opacity:1"
     d="m 270.28866,277.30819 60.84934,-1.17266 -1.2677,131.33794 -64.65241,0 z"
     id="path3360"
     inkscape:connector-curvature="0" />
  <path
     style="fill:none;fill-rule:evenodd;stroke:#000000;stroke-width:1.0936656px;stroke-linecap:butt;stroke-linejoin:miter;stroke-opacity:1"
     d="m 489.59982,250.337 -2.53539,148.92785 48.1724,2.34532 1.26769,-150.10051 z"
     id="path3362"
     inkscape:connector-curvature="0" />
  <path
     style="fill:none;fill-rule:evenodd;stroke:#000000;stroke-width:1.0936656px;stroke-linecap:butt;stroke-linejoin:miter;stroke-opacity:1"
     d="m 201.83316,81.473934 3.80308,57.460356 59.58165,0 -1.2677,-57.460356 z"
     id="path3364"
     inkscape:connector-curvature="0" />
  <path
     style="fill:none;fill-rule:evenodd;stroke:#000000;stroke-width:1.0936656px;stroke-linecap:butt;stroke-linejoin:miter;stroke-opacity:1"
     d="m 266.48558,381.67494 -48.17239,-1.17266 0,69.18695 49.44009,0 z"
     id="path3366"
     inkscape:connector-curvature="0" />
  <path
     style="fill:none;fill-rule:evenodd;stroke:#000000;stroke-width:1.0936656px;stroke-linecap:butt;stroke-linejoin:miter;stroke-opacity:1"
     d="M 87.740645,334.76854 85.205257,541.15673"
     id="path3368"
     inkscape:connector-curvature="0" />
  <path
     style="fill:none;fill-rule:evenodd;stroke:#000000;stroke-width:1.0936656px;stroke-linecap:butt;stroke-linejoin:miter;stroke-opacity:1"
     d="m 489.59982,238.6104 1.2677,12.89926"
     id="path3370"
     inkscape:connector-curvature="0" />
  <path
     style="fill:none;fill-rule:evenodd;stroke:#000000;stroke-width:1.0936656px;stroke-linecap:butt;stroke-linejoin:miter;stroke-opacity:1"
     d="m 489.59982,182.32271 2.53539,16.41724"
     id="path3372"
     inkscape:connector-curvature="0" />
  <path
     style="fill:none;fill-rule:evenodd;stroke:#000000;stroke-width:1.0936656px;stroke-linecap:butt;stroke-linejoin:miter;stroke-opacity:1"
     d="m 116.89762,141.27961 -1.2677,15.24457"
     id="path3374"
     inkscape:connector-curvature="0" />
  <path
     style="fill:none;fill-rule:evenodd;stroke:#000000;stroke-width:1.0936656px;stroke-linecap:butt;stroke-linejoin:miter;stroke-opacity:1"
     d="m 115.62992,72.092654 1.2677,22.28054"
     id="path3376"
     inkscape:connector-curvature="0" />
  <path
     style="fill:none;fill-rule:evenodd;stroke:#000000;stroke-width:1.0936656px;stroke-linecap:butt;stroke-linejoin:miter;stroke-opacity:1"
     d="m 536.50452,267.92691 114.09251,1.17266 0,133.68326"
     id="path3378"
     inkscape:connector-curvature="0" />
  <path
     style="fill:none;fill-rule:evenodd;stroke:#000000;stroke-width:1.0936656px;stroke-linecap:butt;stroke-linejoin:miter;stroke-opacity:1"
     d="m 535.23683,500.11362 181.28032,2.34532"
     id="path3380"
     inkscape:connector-curvature="0" />
  <path
     style="fill:none;fill-rule:evenodd;stroke:#000000;stroke-width:1.0936656px;stroke-linecap:butt;stroke-linejoin:miter;stroke-opacity:1"
     d="m -4.8010569,210.46656 120.4309769,0"
     id="path3382"
     inkscape:connector-curvature="0" />
  <path
     style="fill:none;fill-rule:evenodd;stroke:#000000;stroke-width:1.0936656px;stroke-linecap:butt;stroke-linejoin:miter;stroke-opacity:1"
     d="m 550.44917,61.538704 112.82482,0"
     id="path3384"
     inkscape:connector-curvature="0" />
  <path
     style="fill:none;fill-rule:evenodd;stroke:#000000;stroke-width:1.0936656px;stroke-linecap:butt;stroke-linejoin:miter;stroke-opacity:1"
     d="M 76.331399,209.2939 72.528317,333.59588"
     id="path3386"
     inkscape:connector-curvature="0" />
  <path
     style="fill:#000000"
     d="m -3.6069913,38.046642 0,-34.2463658 58.9380033,0.610359 c 32.415898,0.335695 59.020538,0.681047 59.121428,0.767425 0.2379,0.203718 2.78678,65.5409638 2.56646,65.7880238 -0.0919,0.10309 -27.270365,0.44382 -60.39652,0.75717 l -60.2293713,0.56976 0,-34.246372 z"
     id="path3392"
     inkscape:connector-curvature="0" />
  <path
     style="fill:#000000"
     d="m -2.7105962,183.96433 0,-25.70549 27.6417932,0 c 15.202986,0 41.624245,-0.247 58.713899,-0.54889 l 31.072104,-0.54888 -0.002,13.19412 c -0.002,7.25676 -0.26611,19.0625 -0.5877,26.23498 l -0.58471,13.04086 -58.126202,0.0194 -58.1265048,0.0194 0,-25.70549 z"
     id="path3394"
     inkscape:connector-curvature="0" />
  <path
     style="fill:#000000"
     d="m -2.1129994,333.49557 c -0.3286784,-0.30403 -0.5975968,-27.91626 -0.5975968,-61.3605 l 0,-60.80769 38.9932002,0 38.993208,0 -0.01444,1.86568 c -0.008,1.02614 -0.808195,26.67939 -1.778351,57.00723 -0.970155,30.32784 -1.770414,57.10051 -1.778351,59.49481 l -0.01444,4.35327 -36.602816,0 c -20.131547,0 -36.8717319,-0.24875 -37.2004104,-0.5528 z"
     id="path3396"
     inkscape:connector-curvature="0" />
  <path
     style="fill:#000000"
     d="M 10.649501,539.07034 -0.6412757,538.8121 -1.2244583,527.01987 c -0.3207516,-6.48564 -0.5846598,-52.18438 -0.5864633,-101.55264 l -0.0033,-89.76046 44.4043646,0 44.404368,0 -0.517037,28.39996 c -0.475336,26.10928 -2.237722,160.90038 -2.237722,171.14573 l 0,4.43648 -31.149751,-0.18018 c -17.132358,-0.0989 -36.230592,-0.29642 -42.440518,-0.43842 z"
     id="path3398"
     inkscape:connector-curvature="0" />
  <path
     style="fill:#000000"
     d="m 219.59547,414.76992 0,-33.70749 8.73985,0.53536 c 4.80692,0.29446 15.09832,0.53731 22.86978,0.53966 l 14.12992,0.004 -0.60267,12.92928 c -0.40728,8.73773 -0.29664,13.10601 0.34131,13.47443 0.60287,0.34818 1.05934,7.66106 1.26327,20.23864 l 0.3193,19.6935 -23.53038,-9e-5 -23.53038,-8e-5 0,-33.7075 z"
     id="path3400"
     inkscape:connector-curvature="0" />
  <path
     style="fill:#000000"
     d="m 268.89722,372.19139 c 0,-28.35387 0.20534,-33.99704 1.23709,-33.99704 1.01664,0 1.35507,-5.30986 1.89906,-29.79557 l 0.66195,-29.79559 5.49622,-0.44833 c 3.0229,-0.24658 15.88318,-0.58436 28.57838,-0.75062 l 23.08219,-0.30227 -10e-4,25.36372 c -5.6e-4,13.95004 -0.26808,42.9945 -0.59448,64.54323 l -0.59345,39.1795 -29.88296,0 -29.88296,0 0,-33.99703 z"
     id="path3402"
     inkscape:connector-curvature="0" />
  <path
     style="fill:#000000"
     d="m 219.89131,334.13588 c -16.35338,-0.73221 -29.99182,-1.57155 -30.30762,-1.86519 -0.31581,-0.29364 -0.75298,-16.15202 -0.97149,-35.24083 -0.21852,-19.08881 -0.57371,-48.60633 -0.78932,-65.59449 l -0.39202,-30.88755 19.00206,0 19.00204,0 23.19562,21.46864 23.19561,21.46862 -0.40886,15.79004 c -0.2364,9.13022 -0.80395,16.25047 -1.34562,16.88169 -0.54403,0.63397 -1.17748,8.73971 -1.51092,19.33396 -0.31578,10.03327 -0.83131,23.18638 -1.14562,29.22915 l -0.5715,10.98685 -8.60947,-0.11979 c -4.73522,-0.066 -21.98953,-0.71888 -38.34289,-1.4511 z"
     id="path3404"
     inkscape:connector-curvature="0" />
  <path
     style="fill:#000000"
     d="m 204.91983,112.44576 c -0.85948,-14.251816 -1.7732,-26.938516 -2.03051,-28.192676 l -0.46781,-2.28028 30.03597,0 30.03596,0 0.47954,4.35327 c 0.26374,2.3943 0.65613,15.081006 0.87199,28.192676 l 0.39244,23.83937 -28.87745,0 -28.87745,0 -1.56268,-25.91236 z"
     id="path3406"
     inkscape:connector-curvature="0" />
  <path
     style="fill:#000000"
     d="m 325.37013,158.51972 0,-24.04385 18.96884,-0.54646 c 10.43286,-0.30055 39.4112,-0.54646 64.39632,-0.54646 24.98511,0 53.34438,-0.24526 63.02058,-0.54503 l 17.5931,-0.54504 0.25487,-7.88701 c 0.17438,-5.39709 0.60858,-7.99549 1.37534,-8.23062 0.88358,-0.27095 1.12049,6.48262 1.12049,31.93985 l 0,32.28347 -19.49659,0.53267 c -10.72313,0.29297 -48.23729,0.78011 -83.36478,1.0825 l -63.86817,0.54982 0,-24.04384 z"
     id="path3408"
     inkscape:connector-curvature="0" />
  <path
     style="fill:#000000"
     d="m 494.41365,177.88878 c -0.23689,-1.44729 -0.63636,-27.25855 -0.8877,-57.35837 -0.25135,-30.099816 -0.69437,-68.253194 -0.98448,-84.785287 l -0.5275,-30.0583558 28.72751,0 28.7275,0 0,86.5636868 0,86.563676 -13.67003,0.48031 c -7.51851,0.26415 -19.80905,0.64802 -27.3123,0.85303 l -13.64229,0.37274 -0.43071,-2.63143 z"
     id="path3410"
     inkscape:connector-curvature="0" />
  <path
     style="fill:#000000"
     d="m 387.66961,58.735106 c -35.00424,-0.267712 -63.74491,-0.559249 -63.86818,-0.64787 -0.12325,-0.08857 -0.22409,-12.130298 -0.22409,-26.759296 l 0,-26.5981758 82.84227,0.271203 c 45.56325,0.149157 83.02136,0.457766 83.24025,0.6858 0.21889,0.228026 0.6523,12.4482968 0.96312,27.1561638 l 0.56515,26.741573 -19.93723,-0.181322 c -10.96547,-0.09972 -48.57705,-0.400364 -83.58129,-0.668076 z"
     id="path3412"
     inkscape:connector-curvature="0" />
  <path
     style="fill:#000000"
     d="m 551.26177,33.050235 0,-27.3634678 52.7456,0 52.7456,0 0.58739,15.5474198 c 0.32308,8.551086 0.58854,20.864649 0.58994,27.363467 l 0.002,11.816052 -53.33553,0 -53.33553,0 0,-27.363471 z"
     id="path3414"
     inkscape:connector-curvature="0" />
  <path
     style="fill:#000000"
     d="m 504.0836,399.08809 -15.70123,-0.55293 1.13953,-72.48989 c 0.62673,-39.86944 1.64161,-72.94958 2.25528,-73.51144 0.61368,-0.56185 10.59516,-0.65451 22.18106,-0.20591 l 21.0653,0.81564 0,48.4502 c 0,26.64761 -0.52934,59.763 -1.17631,73.58976 l -1.17631,25.13954 -6.44305,-0.34101 c -3.54368,-0.18757 -13.50861,-0.58985 -22.14427,-0.89396 z"
     id="path3416"
     inkscape:connector-curvature="0" />
  <path
     style="fill:#000000"
     d="m 538.60911,334.81659 0,-65.50648 38.09681,0.008 c 20.95325,0.004 45.96267,0.49041 55.57652,1.07931 l 17.47971,1.07075 0,64.42716 0,64.42716 -55.57651,0 -55.57653,0 0,-65.50648 z"
     id="path3418"
     inkscape:connector-curvature="0" />
  <path
     style="fill:#000000"
     d="m 610.01973,499.8983 c -38.12792,-0.49551 -69.99477,-1.52184 -70.81525,-2.28076 -0.82046,-0.7589 -1.75881,-22.1051 -2.08521,-47.43598 l -0.59346,-46.05614 11.3502,-1.06932 c 6.24261,-0.58812 46.24239,-1.05785 88.88841,-1.04386 l 77.5382,0.0254 0,49.72366 0,49.72365 -17.47971,-0.34288 c -9.61384,-0.18859 -48.67527,-0.7483 -86.80318,-1.2438 z"
     id="path3420"
     inkscape:connector-curvature="0" />
  <path
     style="fill:#000000"
     d="m 660.51889,85.491384 c 0,-17.66509 0.55501,-23.48657 2.24099,-23.50567 1.71527,-0.0195 1.73622,-0.3222 0.0894,-1.2906 -1.49246,-0.877589 -2.31634,-9.583321 -2.68918,-28.41596 l -0.53753,-27.1507568 52.5813,0.933002 c 28.91971,0.513151 52.90302,1.230603 53.29624,1.594338 0.3932,0.363734 1.26516,22.8172218 1.93769,49.8966428 l 1.22277,49.2353 -18.82309,0 c -10.35269,0 -34.68456,0.49139 -54.0708,1.09199 l -35.24772,1.09198 0,-23.480266 z"
     id="path3422"
     inkscape:connector-curvature="0" />
  <path
     style="fill:#000000"
     d="m 621.07749,143.27232 0,-33.16785 72.87842,0 72.87844,0 -1.15752,16.16933 c -0.63664,8.89312 -1.16169,23.81865 -1.16679,33.16784 l -0.009,16.99852 -71.71163,0 -71.71164,0 0,-33.16784 z"
     id="path3424"
     inkscape:connector-curvature="0" />
  <path
     style="fill:#ffffff"
     d="m 146.14496,540.04301 -59.901457,-0.46041 1.18755,-67.41397 c 0.653161,-37.07768 1.187561,-82.93207 1.187561,-101.89865 l 0,-34.48468 13.894136,-0.56521 c 10.8075,-0.43965 9.16198,-0.63936 -7.40717,-0.89897 l -21.301291,-0.33373 1.149423,-39.38681 c 0.632169,-21.66275 1.642431,-49.27497 2.245002,-61.3605 l 1.095602,-21.9737 17.711692,0 17.711682,0 0.32627,33.58244 0.32628,33.58244 1.23935,-36.48463 c 1.59813,-47.04676 1.6033,-104.85476 0.009,-95.80293 -0.67998,3.85955 -1.60203,7.35567 -2.04903,7.76917 -0.44699,0.41348 -26.816,1.2878 -58.597796,1.94294 l -57.7850942,1.19114 0,-40.66737 0,-40.667356 6.722966,-1.02794 c 3.6977311,-0.56537 29.8232042,-1.03614 58.0567062,-1.04619 l 51.333638,-0.0182 1.08101,3.73139 c 0.59455,2.05225 1.09203,6.90305 1.1055,10.77955 0.0134,3.87649 0.68352,7.04816 1.48902,7.04816 0.80549,0 1.30463,-20.64113 1.10917,-45.869181 l -0.35536,-45.8691818 54.91554,1.089688 c 30.20354,0.599328 76.09287,1.090998 101.97629,1.0926 l 47.06076,0.0029 0,27.1039118 0,27.103907 83.76831,1.18565 c 46.07258,0.652101 83.81833,1.328601 83.87942,1.503351 0.69413,1.98495 -2.61032,66.283881 -3.44621,67.057091 -0.62529,0.57842 -37.42304,1.38073 -81.77281,1.78292 l -80.63592,0.73125 0,26.57715 0,26.57716 82.3929,-1.18294 82.39292,-1.18291 1.20282,8.38766 c 0.66156,4.6132 1.86767,8.38766 2.6802,8.38766 0.81256,0 1.01462,-3.61427 0.44903,-8.03169 l -1.02833,-8.03169 13.93282,-1.08947 c 7.66305,-0.59921 21.07191,-1.08947 29.79746,-1.08947 l 15.86462,0 0,-59.7021 0,-59.702121 52.88733,0 52.88733,0 0,8.0372 c 0,4.42045 0.52418,14.86832 1.16485,23.21748 l 1.16487,15.180301 -20.92121,0 -20.92122,0 0.48385,35.24083 0.48386,35.24083 74.84932,0 74.84931,0 -2.9e-4,162.10781 -3e-4,162.1078 -25.09908,0 -25.09907,0 0,-52.44195 0,-52.44195 -33.16663,0.69091 -33.16663,0.6909 0,-65.99478 0,-65.99478 -44.37157,-0.0116 c -24.40438,-0.006 -49.81718,-0.48754 -56.47292,-1.06901 l -12.10134,-1.05721 0,-8.05214 0,-8.05217 -23.30628,0 -23.30628,0 0,-4.87729 c 0,-2.68252 -0.71382,-5.2854 -1.58624,-5.78417 -1.41105,-0.8067 -2.93107,46.81395 -4.26466,133.60581 l -0.42387,27.5868 10.57154,1.02046 c 5.81434,0.56107 16.38126,1.02028 23.48202,1.02028 l 12.91052,0 1.16883,17.67108 c 0.64287,9.71911 1.16885,32.10741 1.16885,49.75177 l 0,32.08066 -132.66653,0 -132.66653,0 0,-46.43497 0,-46.43498 30.19952,0 30.1995,0 1.17433,-22.6505 c 0.64589,-12.45777 1.17434,-42.63089 1.17434,-67.05137 l 0,-44.40088 -29.68857,0.9737 -29.68857,0.97369 0.34176,-17.01716 0.34175,-17.01715 -23.9638,-22.21306 -23.96381,-22.21304 -20.19381,0 -20.1938,0 0,53.64297 c 0,29.50363 0.51728,60.38414 1.14951,68.62336 l 1.14951,14.98041 38.74009,1.4437 38.74008,1.44367 0.56704,12.43795 c 0.31188,6.84086 0.0371,16.4674 -0.61067,21.39231 l -1.17771,8.95438 -23.14382,-1.08354 -23.1438,-1.08353 0,36.49114 0,36.49114 25.09908,0 25.09907,0 0,14.65967 c 0,8.06282 0.53068,28.21229 1.17931,44.77658 l 1.1793,30.11692 -32.10494,-0.39147 c -17.65773,-0.21531 -59.06061,-0.59866 -92.00642,-0.8519 z m 119.95995,-429.93854 0,-29.851046 -33.30909,0 -33.30906,0 0.96321,4.56057 c 0.52977,2.50832 1.49897,15.381576 2.15378,28.607276 0.65482,13.22567 1.54322,24.60638 1.97423,25.29046 0.431,0.6841 14.45089,1.2438 31.1553,1.2438 l 30.37163,0 0,-29.85106 z"
     id="path3428"
     inkscape:connector-curvature="0" />
  <rect
     style="fill:#000000"
     id="rect3432"
     width="506.13306"
     height="42.36356"
     x="266.44449"
     y="502.09576" />
  <rect
     style="fill:#000000"
     id="rect3434"
     width="5.0167375"
     height="66.33242"
     x="110.92564"
     y="209.45274" />
  <rect
     style="fill:#000000"
     id="rect3436"
     width="42.920975"
     height="5.5741525"
     x="86.956779"
     y="331.5267" />
  <rect
     style="fill:#000000"
     id="rect3438"
     width="27.870764"
     height="8.3612289"
     x="161.093"
     y="330.41187" />
  <rect
     style="fill:#000000"
     id="rect3440"
     width="19.509535"
     height="6.6889834"
     x="112.59789"
     y="199.97668" />
  <rect
     style="fill:#000000"
     id="rect3442"
     width="22.29661"
     height="6.6889834"
     x="165.55232"
     y="198.86186" />
  <rect
     style="fill:#000000"
     id="rect3444"
     width="5.0167375"
     height="17.279873"
     x="112.04047"
     y="139.77583" />
  <rect
     style="fill:#000000"
     id="rect3446"
     width="5.5741525"
     height="25.083687"
     x="112.59789"
     y="69.541512" />
  <rect
     style="fill:#000000"
     id="rect3448"
     width="5.5741525"
     height="20.06695"
     x="110.36823"
     y="274.11292" />
  <rect
     style="fill:#000000"
     id="rect3450"
     width="6.131568"
     height="15.050212"
     x="109.2534"
     y="318.14871" />
  <rect
     style="fill:#000000"
     id="rect3452"
     width="6.6889834"
     height="17.279873"
     x="487.73834"
     y="181.02457" />
  <rect
     style="fill:#000000"
     id="rect3454"
     width="5.5741525"
     height="13.935382"
     x="486.62354"
     y="238.99576" />
  <rect
     style="fill:#000000"
     id="rect3456"
     width="16.722458"
     height="7.8038139"
     x="548.49664"
     y="110.79025" />
  <rect
     style="fill:#000000"
     id="rect3458"
     width="20.624365"
     height="8.918644"
     x="600.33624"
     y="109.67542" />
</svg>
